# xmcd
#
# Track frame offsets: 
#        150
#        29800
#        49580
#        69748
#        87761
#        93825
#        119985
#        140268
#        165051
#
# Disc length: 2599 seconds
#
# Revision: 0
# Processed by: cddbd v1.5.2PL0 Copyright (c) Steve Scherf et al.
# Submitted via: ExactAudioCopy v1.0b1
#
DISCID=740a2509
DTITLE=Lampela and Lampi - Bensaahan ne pojat tuli hakemaan
DYEAR=2011
DGENRE=Hip-Hop
TTITLE0=Kun mikään ei riitä (akustinen)
TTITLE1=Bensaahan ne pojat tuli hakemaan (akustinen)
TTITLE2=Sammuu (akustinen)
TTITLE3=Tennispallobiisi (akustinen)
TTITLE4=Pieni välisoitto (akustinen)
TTITLE5=Bussi 615 (akustinen)
TTITLE6=Sirkuskarhu (akustinen)
TTITLE7=Merkit sinusta (akustinen)
TTITLE8=Kuukauden työntekijä (akustinen)
EXTD=
EXTT0=
EXTT1=
EXTT2=
EXTT3=
EXTT4=
EXTT5=
EXTT6=
EXTT7=
EXTT8=
PLAYORDER=
